<svg width="261" height="383" viewBox="0 0 261 383" fill="none" xmlns="http://www.w3.org/2000/svg">
<path fill-rule="evenodd" clip-rule="evenodd" d="M137.14 1.34202C117.587 5.68202 102.182 14.032 89.3945 27.222C78.3645 38.599 71.0435 51.069 67.1555 65.101C64.6325 74.205 64.6425 74.631 67.3895 75.461C70.3225 76.347 74.9225 80.659 76.8275 84.307L78.3365 87.199L71.9885 83.656C63.5565 78.952 58.3685 77.592 54.2865 79.015C48.0765 81.18 51.4905 86.182 60.2595 87.768C63.3815 88.332 64.5115 88.97 64.1925 89.988C63.3395 92.717 62.9565 103.125 63.5855 106.481C63.9345 108.338 65.3825 111.239 66.8035 112.929C68.2255 114.618 69.1325 116.256 68.8195 116.569C68.5075 116.882 65.4385 116.188 62.0015 115.027C54.6055 112.529 51.3185 112.397 46.5195 114.402C42.3025 116.164 42.4915 117.772 47.1995 120.164C51.1665 122.18 55.9025 122.375 63.1595 120.818C65.9745 120.215 68.4975 119.94 68.7655 120.208C69.0335 120.477 68.3705 122.658 67.2915 125.056C64.4885 131.285 63.9425 134.493 64.6815 140.403C65.7245 148.754 65.5285 148.691 77.7935 144.64C83.7585 142.67 95.8395 139.267 104.64 137.078C120.957 133.02 141.238 126.825 146.64 124.249C149.484 122.894 149.536 122.906 147.64 124.485C141.478 129.62 121.794 137.13 83.6395 148.905C57.5535 156.956 43.7155 164.354 31.3155 176.877C2.92651 205.549 -7.62649 253.747 5.74651 293.654C8.26351 301.164 11.8135 308.849 10.7185 304.416C7.46051 291.229 8.04851 274.879 12.3015 260.416C21.0465 230.678 45.8435 204.567 82.9945 185.975C88.6895 183.124 93.5095 180.953 93.7045 181.148C93.9005 181.344 92.3905 182.381 90.3505 183.454C52.9005 203.141 29.3405 232.621 26.1005 263.847C25.2345 272.188 26.1485 286.763 27.9855 293.916C31.8845 309.102 43.7115 327.817 56.3945 338.873C62.4025 344.11 75.3535 352.902 76.2465 352.35C77.9145 351.319 92.7295 332.232 98.1715 324.103L103.988 315.416L101.314 313.444C86.7815 302.727 75.6395 286.921 72.1505 272.07C68.9705 258.537 75.8565 245.296 89.5675 238.583C94.0835 236.372 96.3765 235.916 102.994 235.916C112.501 235.916 118.703 238.171 124.472 243.726C128.979 248.065 130.219 250.248 133.009 258.752C136.496 269.379 136.794 292.172 133.594 303.46C133.092 305.23 134.191 306.027 141.827 309.426C163.216 318.948 185.153 331.066 201.055 342.143L206.472 345.916H194.199C182.913 345.916 181.982 346.057 182.619 347.666C183.574 350.079 185.415 361.975 184.91 362.479C184.685 362.704 180.707 360.307 176.07 357.152C156.19 343.625 125.97 326.567 124.843 328.236C124.405 328.885 120.866 334.816 116.979 341.416C113.092 348.016 109.025 354.664 107.941 356.19L105.97 358.964L112.599 361.97C129.329 369.556 156.952 377.151 180.14 380.54C202.229 383.768 235.937 382.343 249.633 377.602L253.378 376.306L248.135 369.861C239.443 359.176 226.498 347.321 210.14 335.065C201.615 328.678 194.415 323.219 194.14 322.934C193.865 322.649 190.715 319.953 187.14 316.942C161.854 295.646 149.83 270.257 151.43 241.539C152.372 224.628 158.075 207.584 166.744 195.775C171.065 189.888 173.569 189.074 178.936 191.812C185.782 195.304 198.256 199.99 203.209 200.929C209.891 202.196 214.754 201.148 218.204 197.698C220.657 195.245 221.14 193.952 221.14 189.839C221.14 186.252 221.651 184.478 223.025 183.302C230.205 177.161 230.363 176.925 229.693 173.354C229.131 170.357 229.354 169.785 231.383 169.013C235.021 167.63 236.4 165.376 235.662 162.016C234.695 157.614 236.449 155.37 242.357 153.455C247.963 151.638 252.14 148.509 252.14 146.126C252.14 145.333 250.622 142.599 248.766 140.05C244.456 134.132 241.14 127.568 241.14 124.956C241.14 123.405 241.799 122.908 243.89 122.884C245.402 122.867 247.432 122.252 248.399 121.517C249.975 120.321 249.724 120.124 246.005 119.625C238.963 118.68 238.342 114.729 243.695 104.916C255.01 84.171 257.165 76.444 255.229 63.543C253.482 51.899 247.959 40.844 239.827 32.718C234.217 27.112 224.384 20.916 221.097 20.916C220.455 20.916 218.597 19.795 216.969 18.426C208.802 11.553 194.148 4.93702 180.325 1.88002C170.165 -0.366981 146.184 -0.665983 137.14 1.34202ZM191.544 28.113C192.879 31.924 190.758 38.271 186.654 42.75C184.809 44.762 182.951 46.061 182.525 45.635C182.099 45.209 181.726 41.836 181.696 38.138C181.65 32.622 182.063 30.823 183.998 28.111C186.861 24.096 190.138 24.097 191.544 28.113ZM149.805 29.474C153.933 32.623 157.14 38.679 157.14 43.327V46.818L161.39 44.889C166.998 42.344 172.189 42.38 175.505 44.989C177.721 46.732 178.14 47.852 178.14 52.038C178.14 56.875 176.406 61.694 173.45 65.071C172.15 66.557 172.302 66.793 174.93 67.37C178.238 68.097 182.119 71.847 184.551 76.666C186.049 79.636 186.056 80.178 184.617 82.96C181.366 89.247 172.3 92.142 163.91 89.573C159.271 88.152 159.202 88.163 160.261 90.142C162.545 94.41 158.639 103.976 153.646 106.346C149.823 108.16 146.309 107.312 142.258 103.599C139.149 100.75 136.19 94.25 136.162 90.211L136.14 87.007L133.634 89.513C132.255 90.892 129.332 92.823 127.138 93.805C123.176 95.58 122.811 96.916 126.289 96.916C127.288 96.916 130.138 98.864 132.622 101.245C137.757 106.164 138.414 109.444 134.89 112.551C129.629 117.188 123.433 118.071 117.217 115.067L113.39 113.218L112.857 119.103C112.257 125.723 108.824 131.325 104.32 133.038C100.851 134.357 98.0955 133.036 94.5095 128.334C92.0945 125.169 91.6705 123.68 91.6565 118.317C91.6395 112.045 91.6295 112.024 89.4245 113.467C86.7965 115.187 78.9085 115.378 75.8235 113.796C71.5505 111.605 67.1395 106.586 67.1395 103.916C67.1395 98.369 80.1235 90.691 86.7085 92.344L89.3015 92.995L86.5275 89.358C83.2735 85.092 82.1605 76.109 84.3685 71.933C88.1715 64.741 99.4805 68.217 103.748 77.889L105.461 81.772L108.391 77.728C110.156 75.292 112.879 73.072 115.239 72.145L119.158 70.605L116.294 68.864C108.022 63.833 105.811 50.209 112.755 47.046C116.602 45.293 123.796 45.7 128.14 47.916C130.296 49.016 132.191 49.912 132.35 49.908C132.51 49.903 132.708 47.492 132.791 44.55C132.954 38.767 134.665 34.561 138.128 31.427C139.93 29.796 144.312 27.344 146.046 26.997C146.269 26.953 147.96 28.067 149.805 29.474ZM105.757 31.543C107.556 35.847 106.887 41.474 103.869 47.416L101.838 51.416L99.9025 46.916C97.6415 41.657 97.9085 34.444 100.511 30.473C102.779 27.011 103.965 27.253 105.757 31.543ZM213.558 37.523C218.881 39.565 210.284 44.916 201.68 44.916C198.633 44.916 196.14 44.544 196.14 44.09C196.14 43.08 199.917 39.589 202.64 38.083C204.823 36.876 211.041 36.557 213.558 37.523ZM92.7715 50.455C95.5405 52.562 101.14 60.6 101.14 62.469C101.14 63.762 94.8085 61.912 90.4075 59.333C83.1555 55.083 80.4195 45.771 86.8985 47.388C88.4065 47.764 91.0485 49.144 92.7715 50.455ZM142.16 52.416C142.035 56.298 141.796 56.969 141.089 55.416C140.469 54.053 140.368 54.929 140.773 58.166C141.333 62.644 140.256 64.53 138.636 61.909C138.293 61.355 136.579 60.168 134.827 59.272C131.728 57.688 131.684 57.695 133.238 59.529C136.321 63.17 136.616 64.241 134.175 62.935C130.927 61.196 130.741 62.244 133.761 65.264L136.413 67.916H133.341C131.652 67.916 129.116 67.477 127.705 66.941C126.294 66.404 125.14 66.146 125.14 66.368C125.14 67.036 131.351 69.916 132.794 69.916C133.534 69.916 134.14 70.366 134.14 70.916C134.14 71.466 133.721 71.916 133.208 71.916C132.696 71.916 131.239 73.372 129.972 75.152L127.667 78.389L130.715 76.219C132.391 75.025 135.015 73.734 136.547 73.35L139.332 72.651L136.916 76.533C132.764 83.204 132.609 83.58 134.797 81.666C135.897 80.703 137.313 79.916 137.943 79.916C138.573 79.916 139.86 78.453 140.802 76.666L142.516 73.416L144.807 80.416C146.942 86.939 147.081 87.127 146.843 83.166C146.702 80.828 146.858 78.916 147.189 78.916C147.52 78.916 148.847 80.039 150.136 81.412C153.738 85.246 153.704 83.596 150.071 78.316C147.489 74.563 147.209 73.738 148.725 74.358C151.451 75.471 160.451 77.901 161.64 77.845C162.19 77.818 160.165 76.626 157.14 75.196C151.858 72.697 151.745 72.565 154.318 71.86C155.792 71.457 157.592 70.614 158.318 69.987C159.045 69.361 160.54 68.151 161.64 67.3C163.58 65.8 163.581 65.772 161.685 66.382C158.015 67.562 151.14 68.19 151.14 67.344C151.14 66.88 152.828 64.767 154.89 62.649C157.415 60.056 157.987 59.042 156.64 59.545C154.792 60.234 154.754 60.144 156.14 58.353C157.558 56.522 157.531 56.494 155.64 57.85C154.54 58.639 152.393 60.664 150.868 62.35C148.136 65.371 148.103 65.38 148.56 62.916C148.816 61.541 149.296 58.616 149.627 56.416C150.208 52.558 150.18 52.507 148.839 54.983C148.074 56.394 147.132 58.81 146.746 60.351C145.765 64.257 145.179 63.197 143.649 54.752L142.32 47.416L142.16 52.416ZM202.593 55.077C205.942 56.603 205.806 57.539 201.89 59.927C196.966 62.929 181.954 62.398 183.926 59.292C186.747 54.847 197.005 52.531 202.593 55.077ZM244.878 68.029C246.611 86.924 234.87 110.192 212.136 132.916C192.996 152.048 174.949 164.496 137.14 184.646C121.844 192.798 113.514 197.346 108.846 200.094C106.209 201.646 103.811 202.916 103.516 202.916C103.221 202.916 98.8715 205.729 93.8505 209.166C83.1015 216.526 72.8285 226.233 67.6595 233.916C62.6825 241.314 62.5415 241.352 65.5765 234.475C69.7625 224.989 74.8095 218.088 85.0605 207.833C95.8935 196.995 107.758 188.805 127.64 178.439C157.889 162.668 166.094 158.003 180.14 148.588C210.167 128.46 230.929 104.722 238.452 81.916C240.547 75.567 242.39 62.457 241.726 58.636L241.166 55.416L242.765 58.916C243.644 60.841 244.595 64.942 244.878 68.029ZM100.586 92.191C101.154 94.796 101.02 94.93 98.4145 94.372L95.6395 93.777L97.9425 95.799L100.245 97.822L96.1925 99.889C91.3005 102.385 91.0045 103.102 95.3825 101.846C100.658 100.333 101.16 100.563 100.446 104.166C99.8775 107.037 99.9855 107.265 101.374 106.124C102.658 105.069 103.032 105.069 103.419 106.124C103.68 106.835 104.231 106.144 104.644 104.59C105.288 102.167 105.759 101.855 107.942 102.402C110.187 102.966 110.332 102.853 109.166 101.448C108.048 100.1 108.137 99.631 109.742 98.417C111.54 97.055 111.494 96.978 108.871 96.948C106.355 96.919 106.165 96.665 106.787 94.166C107.418 91.631 107.334 91.529 105.712 92.867C104.139 94.163 103.74 94.057 101.967 91.867L99.9815 89.416L100.586 92.191ZM84.2895 125.591C81.0155 131.957 74.5245 136.916 69.4655 136.916C67.5025 136.916 68.4055 132.755 71.2315 128.787C73.2465 125.957 85.3965 119.485 85.9475 120.948C86.1175 121.398 85.3715 123.488 84.2895 125.591ZM55.1395 129.507C48.8505 133.094 47.1215 134.808 44.9895 139.571C41.7755 146.751 44.6285 148.986 51.2575 144.482C54.0035 142.616 55.5585 140.282 57.9205 134.482C59.6155 130.321 60.6955 126.921 60.3205 126.928C59.9465 126.935 57.6145 128.095 55.1395 129.507ZM169.14 258.302C196.631 269.806 224.067 290.729 240.795 312.946C250.544 325.895 258.139 345.309 258.139 357.276C258.139 361.165 258.411 362.045 259.327 361.129C261.163 359.293 260.858 334.758 258.914 327.916C251.021 300.129 230.301 278.269 199.047 264.759C188.64 260.261 172.865 255.893 167.262 255.958L163.64 256.001L169.14 258.302ZM97.4715 260.767C91.6775 262.77 85.7515 266.904 84.0085 270.16C82.9665 272.108 83.4335 272.864 88.7215 277.786C94.2825 282.962 111.376 294.916 113.217 294.916C114.403 294.916 119.267 278.672 122.546 263.762C123.051 261.466 122.706 260.96 119.986 260.012C115.191 258.34 103.345 258.738 97.4715 260.767Z" fill="white"/>
</svg>
